<?xml version="1.0" encoding="UTF-8"?>
<!DOCTYPE svg PUBLIC "-//W3C//DTD SVG 1.1//EN" "http://www.w3.org/Graphics/SVG/1.1/DTD/svg11.dtd">
<!-- Creator: CorelDRAW 2019 (64-Bit) -->
<svg xmlns="http://www.w3.org/2000/svg" xml:space="preserve" width="217px" height="56px" version="1.1" style="shape-rendering:geometricPrecision; text-rendering:geometricPrecision; image-rendering:optimizeQuality; fill-rule:evenodd; clip-rule:evenodd"
viewBox="0 0 1459.841 374.834"
 xmlns:xlink="http://www.w3.org/1999/xlink">
 <defs>
  <style type="text/css">
   <![CDATA[
    .fil2 {fill:#2B2A29}
    .fil4 {fill:#F18825}
    .fil0 {fill:#2B2A29;fill-rule:nonzero}
    .fil3 {fill:#2B2A29;fill-rule:nonzero}
    .fil1 {fill:url(#id0);fill-rule:nonzero}
   ]]>
  </style>
  <linearGradient id="id0" gradientUnits="userSpaceOnUse" x1="3.806" y1="88.718" x2="270.59" y2="283.686">
   <stop offset="0" style="stop-opacity:1; stop-color:#F18825"/>
   <stop offset="1" style="stop-opacity:1; stop-color:#F6A20A"/>
  </linearGradient>
 </defs>
 <g id="Слой_x0020_1">
  <metadata id="CorelCorpID_0Corel-Layer"/>
  <path class="fil0" d="M1448.388 172.258l-94.418 0c0,70.384 0.193,121.713 0.193,192.099 0,12.827 -44.109,14.061 -43.991,0.313l0 -218.643c0,-9.24 5.555,-17.783 16.809,-17.783l121.407 0c15.721,-0.282 14.812,44.014 0,44.014z"/>
  <path class="fil1" d="M28.89 372.404c-8.148,0 -15,-2.384 -20.557,-7.152 -5.555,-4.768 -8.333,-10.65 -8.333,-17.643l0 -322.814c0,-7.312 2.778,-13.272 8.333,-17.881 5.557,-4.609 12.409,-6.914 20.557,-6.914l100.557 0c201.418,0 184.932,372.404 0,372.404l-100.557 0zm98.107 -50.219c118.181,-0.606 120.822,-271.776 0.453,-271.783l-69.672 -0.007 0 272.143 69.219 -0.353z"/>
  <path class="fil2" d="M333.781 127.282c10.993,0 23.262,0.586 23.262,13.895 0,47.402 -0.078,103.236 -0.078,150.636 0,1.828 -1.297,1.549 0.018,-0.065l126.95 -155.974c0.642,-0.787 1.326,-1.514 2.049,-2.175 3.665,-4.347 8.952,-7.088 14.808,-7.088l0.004 0c10.994,0 23.286,-0.486 23.286,11.314l-0.048 220.443c0,11.802 -12.251,14.492 -23.238,14.492l-0.004 0c-10.992,0 -19.987,-1.467 -19.987,-13.277 0,-46.731 0,-98.334 0,-145.322 0,-2.394 -2.447,-2.124 -3.44,-0.887l-122.6 153.008c-8.547,10.667 -40.972,13.257 -40.972,-3.378l0 -221.304c0,-12.676 10.559,-14.318 19.99,-14.318z"/>
  <path class="fil3" d="M785.22 333.499c12.095,-1.687 19.01,-13.838 24.376,-59.262 6.265,-53.008 4.278,-113.175 44.639,-138.968 17.465,-11.159 55.117,-5.763 88.323,-7.374 26.889,0 36.805,41.075 -2.853,41.648 -37.304,0.539 -57.086,-0.888 -63.073,6.577 -6.007,7.484 -9.293,17.39 -12.058,28.551 -15.367,61.988 3.048,166.196 -71.714,169.354 -4.665,-0.038 -8.114,0.966 -10.291,-1.986 -7.425,-10.056 -4.73,-29.304 -0.089,-37.452 0.497,-0.869 1.738,-0.948 2.74,-1.088zm159.647 -205.604l24.58 0c14.047,1.297 17.089,9.61 17.089,16.096 0,76.762 -1.079,142.375 -1.079,219.777 -1.365,11.684 -37.784,14.23 -42.899,1.404l0 -180.461 2.309 -56.816z"/>
  <path class="fil0" d="M1148.799 374.309c-23.626,0 -44.741,-5.242 -63.345,-15.726 -18.605,-10.482 -33.075,-25.028 -43.411,-43.632 -10.337,-18.604 -15.504,-39.719 -15.504,-63.345 0,-23.92 5.167,-45.182 15.504,-63.789 10.336,-18.604 24.806,-33.149 43.411,-43.631 18.604,-10.484 39.719,-15.726 63.345,-15.726 23.329,0 44.224,5.242 62.681,15.726 18.455,10.482 32.927,25.027 43.411,43.631 10.482,18.607 15.726,39.869 15.726,63.789 0,23.626 -5.169,44.741 -15.505,63.345 -10.337,18.604 -24.733,33.15 -43.191,43.632 -18.455,10.484 -39.497,15.726 -63.122,15.726zm0 -39.867c15.062,0 28.571,-3.544 40.532,-10.631 11.959,-7.089 21.262,-16.907 27.908,-29.458 6.643,-12.551 9.965,-26.8 9.965,-42.747 0,-15.947 -3.322,-30.271 -9.965,-42.968 -6.646,-12.698 -15.949,-22.592 -27.908,-29.679 -11.961,-7.088 -25.47,-10.632 -40.532,-10.632 -15.061,0 -28.572,3.544 -40.533,10.632 -11.959,7.087 -21.336,16.981 -28.128,29.679 -6.793,12.697 -10.188,27.021 -10.188,42.968 0,15.947 3.395,30.196 10.188,42.747 6.792,12.551 16.169,22.369 28.128,29.458 11.961,7.087 25.472,10.631 40.533,10.631z"/>
  <rect class="fil4" x="1426.031" y="341.261" width="32.386" height="32.386" rx="11.52" ry="11.52"/>
  <path class="fil0" d="M745.918 365.945c0,9.811 -40.91,11.244 -40.999,-0.621l-0.082 -10.801c-14.725,15.749 -44.697,19.041 -65.899,19.041 -29.432,0 -58.835,-9.031 -73.986,-36.134 -27.004,-48.307 2.902,-111.882 58.197,-114.928 14.329,-0.789 30.801,-0.924 48.331,-1.047l33.391 -0.236 0 -8.934c0,-8.639 -0.12,-16.626 -2.737,-23.09 -14.488,-35.754 -83.833,-22.886 -99.441,-7.191 -2.884,2.902 -13.544,-0.787 -23.622,-7.715 -9.565,-6.577 -9.497,-15.693 -2.8,-24.298 14.836,-19.058 61.767,-24.225 78.72,-24.225 16.162,0 32.008,1.773 43.38,5.449 11.374,3.676 20.525,9.151 27.536,16.25 7.014,7.097 12.062,15.905 15.221,26.422 3.163,10.516 4.79,22.84 4.79,36.858l0 155.2zm-41.047 -102.775c-18.842,0.077 -77.841,-4.621 -92.061,5.726 -15.529,11.299 -24.984,35.366 -4.021,56.234 14.954,14.891 65.017,13.394 88.133,-6.746 9.215,-8.031 7.949,-23.887 7.949,-35.436l0 -19.778z"/>
 </g>
</svg>
